# xmcd
#
# Track frame offsets: 
#        150
#        16050
#        35250
#        48900
#        69225
#
# Disc length: 1121 seconds
#
# Revision: 0
# Processed by: cddbd v1.5.2PL0 Copyright (c) Steve Scherf et al.
# Submitted via: ExactAudioCopyFreeDBPlugin 1.0
#
DISCID=2f045f05
DTITLE=Teresa Harris - Drive Me Crazy
DYEAR=2017
DGENRE=Country
TTITLE0=Drive Me Crazy
TTITLE1=Say Nice Words
TTITLE2=My Girls
TTITLE3=Mary's Song
TTITLE4=These Boots Are Made For Walking
EXTD=
EXTT0=
EXTT1=
EXTT2=
EXTT3=
EXTT4=
PLAYORDER=
